# xmcd
#
# Track frame offsets:
#	150
#	11763
#	23193
#	32502
#	42320
#	51672
#	60900
#	73571
#	83250
#	94671
#	103533
#	116198
#
# Disc length: 1669 seconds
#
# Revision: 0
# Processed by: cddbd v1.5.2PL0 Copyright (c) Steve Scherf et al.
# Submitted via: audiograbber 1.83.01
#
DISCID=9206830c
DTITLE=David Houston - New Voice From Nashville
DYEAR=1964
DGENRE=Country
TTITLE0=One If For Him, Two If For Me
TTITLE1=Passing Through
TTITLE2=I Told Them All About You
TTITLE3=Love Looks Good On You
TTITLE4=Cowpoke
TTITLE5=My Little Lady
TTITLE6=Mountain Of Love
TTITLE7=Chickashay
TTITLE8=I'll Take You Home Again, Kathleen
TTITLE9=Losing You Is Something New
TTITLE10=The Snakes Crawl At Night
TTITLE11=Whipoorwill
EXTD=
EXTT0=
EXTT1=
EXTT2=
EXTT3=
EXTT4=
EXTT5=
EXTT6=
EXTT7=
EXTT8=
EXTT9=
EXTT10=
EXTT11=
PLAYORDER=
